<?xml version="1.0" encoding="UTF-8"?><svg id="Lag_2" xmlns="http://www.w3.org/2000/svg" viewBox="0 0 782.36 195.59"><defs><style>.cls-1{fill:none;}.cls-2{fill:#0094d6;}.cls-3{fill:#1d1d1b;}</style></defs><g id="Lag_2-2"><path class="cls-3" d="m252.34,114.98l6.78-10.5h2.46v.06l-8.19,12.48v8.46h-2.1v-8.46l-8.07-12.48v-.06h2.43l6.69,10.5Z"/><path class="cls-3" d="m275.71,118.1c0,4.59-3.24,7.62-7.62,7.62s-7.62-3.03-7.62-7.62,3.18-7.71,7.62-7.71,7.62,3.12,7.62,7.71Zm-13.23,0c0,3.45,2.34,5.73,5.61,5.73s5.61-2.28,5.61-5.73-2.31-5.88-5.61-5.88-5.61,2.46-5.61,5.88Z"/><path class="cls-3" d="m281.38,110.66v8.31c0,3.09,1.86,4.86,4.86,4.83,2.85,0,4.86-2.22,4.86-5.07v-8.07h1.98v14.82h-1.86l-.06-2.49c-1.23,1.89-3.18,2.7-5.25,2.73-3.84,0-6.54-2.49-6.54-6.72v-8.34h2.01Z"/><path class="cls-3" d="m299.8,110.66l.12,2.43c.96-1.98,2.94-2.67,4.71-2.67,1.35,0,2.28.3,3.36,1.05l-.93,1.68c-.75-.51-1.59-.78-2.55-.78-2.55.03-4.59,1.98-4.59,4.68v8.43h-2.01v-14.82h1.89Z"/><path class="cls-3" d="m330.1,123.5c-1.56,1.53-3.51,2.25-5.52,2.25-4.23,0-7.71-2.82-7.71-7.68s3.39-7.65,7.71-7.65c1.98,0,3.72.69,5.28,2.19l-1.32,1.29c-1.14-1.08-2.49-1.59-3.93-1.59-3.15,0-5.73,2.13-5.73,5.76s2.61,5.76,5.7,5.76c1.5,0,3-.57,4.14-1.68l1.38,1.35Z"/><path class="cls-3" d="m345.55,110.66h1.89v14.82h-1.86v-2.94c-1.29,2.19-3.66,3.24-5.88,3.24-4.2,0-7.56-3-7.56-7.71s3.39-7.62,7.59-7.62c2.28,0,4.71,1.05,5.82,3.15v-2.94Zm-11.4,7.41c0,3.51,2.52,5.82,5.64,5.82,7.65,0,7.65-11.61,0-11.61-3.12,0-5.64,2.31-5.64,5.79Z"/><path class="cls-3" d="m354.16,110.66l.12,2.43c.96-1.98,2.94-2.67,4.71-2.67,1.35,0,2.28.3,3.36,1.05l-.93,1.68c-.75-.51-1.59-.78-2.55-.78-2.55.03-4.59,1.98-4.59,4.68v8.43h-2.01v-14.82h1.89Z"/><path class="cls-3" d="m365.53,118.91c.27,3.09,2.67,4.92,5.61,4.92,1.8,0,3.96-.72,5.01-2.04l1.35,1.2c-1.47,1.83-4.02,2.76-6.36,2.76-4.41,0-7.68-2.97-7.68-7.71,0-4.44,3.18-7.65,7.59-7.65s7.95,2.67,7.38,8.52h-12.9Zm11.01-1.71c-.06-3.24-2.49-5.01-5.46-5.01s-5.16,1.8-5.55,5.01h11.01Z"/><path class="cls-3" d="m383.26,118.91c.27,3.09,2.67,4.92,5.61,4.92,1.8,0,3.96-.72,5.01-2.04l1.35,1.2c-1.47,1.83-4.02,2.76-6.36,2.76-4.41,0-7.68-2.97-7.68-7.71,0-4.44,3.18-7.65,7.59-7.65s7.95,2.67,7.38,8.52h-12.9Zm11.01-1.71c-.06-3.24-2.49-5.01-5.46-5.01s-5.16,1.8-5.55,5.01h11.01Z"/><path class="cls-3" d="m401.77,110.66l.12,2.43c.96-1.98,2.94-2.67,4.71-2.67,1.35,0,2.28.3,3.36,1.05l-.93,1.68c-.75-.51-1.59-.78-2.55-.78-2.55.03-4.59,1.98-4.59,4.68v8.43h-2.01v-14.82h1.89Z"/><path class="cls-3" d="m419.62,115.97h13.56v1.83h-13.56v-1.83Z"/><path class="cls-3" d="m460.09,118.1c0,4.59-3.24,7.62-7.62,7.62s-7.62-3.03-7.62-7.62,3.18-7.71,7.62-7.71,7.62,3.12,7.62,7.71Zm-13.23,0c0,3.45,2.34,5.73,5.61,5.73s5.61-2.28,5.61-5.73-2.31-5.88-5.61-5.88-5.61,2.46-5.61,5.88Z"/><path class="cls-3" d="m465.76,110.66v8.31c0,3.09,1.86,4.86,4.86,4.83,2.85,0,4.86-2.22,4.86-5.07v-8.07h1.98v14.82h-1.86l-.06-2.49c-1.23,1.89-3.18,2.7-5.25,2.73-3.84,0-6.54-2.49-6.54-6.72v-8.34h2.01Z"/><path class="cls-3" d="m484.18,110.66l.12,2.43c.96-1.98,2.94-2.67,4.71-2.67,1.35,0,2.28.3,3.36,1.05l-.93,1.68c-.75-.51-1.59-.78-2.55-.78-2.55.03-4.59,1.98-4.59,4.68v8.43h-2.01v-14.82h1.89Z"/><path class="cls-3" d="m504.22,104.48v9.12c1.11-2.19,3.51-3.21,5.82-3.21,4.17,0,7.47,2.73,7.47,7.68s-3.27,7.68-7.47,7.68c-2.34,0-4.44-.78-5.82-3.12l-.12,2.85h-1.89v-21h2.01Zm.06,13.56c0,3.45,2.43,5.79,5.64,5.79s5.58-2.04,5.58-5.76-2.52-5.76-5.58-5.76-5.64,2.34-5.64,5.73Z"/><path class="cls-3" d="m523.21,110.66v8.31c0,3.09,1.86,4.86,4.86,4.83,2.85,0,4.86-2.22,4.86-5.07v-8.07h1.98v14.82h-1.86l-.06-2.49c-1.23,1.89-3.18,2.7-5.25,2.73-3.84,0-6.54-2.49-6.54-6.72v-8.34h2.01Z"/><path class="cls-3" d="m549.4,113.69c-1.38-1.26-2.79-1.5-4.38-1.5-2.16-.03-4.08.75-4.02,2.4.03,1.74,2.19,2.16,4.05,2.43,2.67.39,6.12.84,6.12,4.44-.06,3.12-3.09,4.32-6.09,4.32-2.55,0-5.07-.84-6.57-2.88l1.26-1.38c1.26,1.71,3.45,2.37,5.34,2.4,1.68,0,4.05-.48,4.05-2.49s-1.92-2.31-4.29-2.64c-2.85-.42-5.82-1.08-5.85-4.14,0-3.03,3.06-4.32,5.97-4.29,2.22,0,4.05.6,5.58,2.01l-1.17,1.32Z"/><path class="cls-3" d="m557.32,106.01c0,1.89-2.85,1.89-2.85,0s2.85-1.89,2.85,0Zm-2.46,4.59v14.88h2.01v-14.88h-2.01Z"/><path class="cls-3" d="m573.4,125.48v-8.31c0-3.18-1.86-4.86-4.83-4.86-2.88.03-4.86,2.25-4.86,5.1v8.07h-2.01v-14.82h1.92l.06,2.49c1.23-1.89,3.15-2.73,5.16-2.73,3.84,0,6.6,2.28,6.6,6.72v8.34h-2.04Z"/><path class="cls-3" d="m581.2,118.91c.27,3.09,2.67,4.92,5.61,4.92,1.8,0,3.96-.72,5.01-2.04l1.35,1.2c-1.47,1.83-4.02,2.76-6.36,2.76-4.41,0-7.68-2.97-7.68-7.71,0-4.44,3.18-7.65,7.59-7.65s7.95,2.67,7.38,8.52h-12.9Zm11.01-1.71c-.06-3.24-2.49-5.01-5.46-5.01s-5.16,1.8-5.55,5.01h11.01Z"/><path class="cls-3" d="m607.48,113.69c-1.38-1.26-2.79-1.5-4.38-1.5-2.16-.03-4.08.75-4.02,2.4.03,1.74,2.19,2.16,4.05,2.43,2.67.39,6.12.84,6.12,4.44-.06,3.12-3.09,4.32-6.09,4.32-2.55,0-5.07-.84-6.57-2.88l1.26-1.38c1.26,1.71,3.45,2.37,5.34,2.4,1.68,0,4.05-.48,4.05-2.49s-1.92-2.31-4.29-2.64c-2.85-.42-5.82-1.08-5.85-4.14,0-3.03,3.06-4.32,5.97-4.29,2.22,0,4.05.6,5.58,2.01l-1.17,1.32Z"/><path class="cls-3" d="m622.6,113.69c-1.38-1.26-2.79-1.5-4.38-1.5-2.16-.03-4.08.75-4.02,2.4.03,1.74,2.19,2.16,4.05,2.43,2.67.39,6.12.84,6.12,4.44-.06,3.12-3.09,4.32-6.09,4.32-2.55,0-5.07-.84-6.57-2.88l1.26-1.38c1.26,1.71,3.45,2.37,5.34,2.4,1.68,0,4.05-.48,4.05-2.49s-1.92-2.31-4.29-2.64c-2.85-.42-5.82-1.08-5.85-4.14,0-3.03,3.06-4.32,5.97-4.29,2.22,0,4.05.6,5.58,2.01l-1.17,1.32Z"/><path class="cls-2" d="m258.24,72.07c-1.29-1.35-3.53-1.95-5.35-1.95-2.28,0-4.13.96-4.13,2.54,0,2.11,2.01,2.51,4.98,2.77,4.55.4,8.88,2.15,8.88,7.49s-4.75,7.39-9.74,7.43c-3.99.03-8.15-1.52-10.1-4.75l3.07-3.2c1.78,2.28,4.72,3.27,7.06,3.27,2.74,0,4.62-1.09,4.62-2.74.03-1.95-1.52-2.84-4.65-3.1-4.88-.46-9.24-1.68-9.18-7.13.03-4.59,4.39-7.03,9.14-7.03,3.56,0,6.24.79,8.61,3.56l-3.23,2.84Z"/><path class="cls-2" d="m271.67,71.08h-7.03v-4.59h19.18v4.59h-7.03v18.52h-5.12v-18.52Z"/><path class="cls-2" d="m308.17,66.53v12.91c0,6.86-3.83,10.53-9.9,10.73-6.04.2-11.16-3.27-11.16-10.73v-12.91h5.12v12.91c0,4.12,2.31,6.27,6.07,6.11,3.5-.23,4.75-2.64,4.75-6.11v-12.91h5.12Z"/><path class="cls-2" d="m322.95,66.5c7.95,0,11.49,5.35,11.49,11.39s-3.4,11.72-11.49,11.72h-9.47v-23.1h9.47Zm-4.39,18.35h4.39c5.02,0,6.4-3.7,6.4-7.03s-1.58-6.67-6.4-6.67h-4.39v13.7Z"/><path class="cls-2" d="m338.82,89.6v-23.1h5.12v23.1h-5.12Z"/><path class="cls-2" d="m367.17,89.6h-17.59v-23.1h17.13v4.72h-12.08v4.46h11.39v4.52h-11.39v4.65h12.54v4.75Z"/><path class="cls-2" d="m376.87,83.06v6.54h-5.15v-23.1h10.89c5.91,0,8.85,3.83,8.85,8.28s-2.97,8.22-8.85,8.28h-5.74Zm0-4.72h5.74c2.48,0,3.7-1.62,3.7-3.46s-1.25-3.5-3.7-3.5h-5.74v6.96Z"/><path class="cls-2" d="m409.91,85.64h-11.85l-1.68,3.96h-5.54l10.36-23.1h5.61l10.36,23.1h-5.58l-1.68-3.96Zm-5.91-13.93l-3.99,9.37h7.95l-3.96-9.37Z"/><path class="cls-2" d="m440.6,89.6h-5.71l-5.91-7.59h-3.73v7.59h-5.15v-23.1h10.96c5.58,0,8.55,3.73,8.55,7.79-.03,3-.92,5.68-5.35,7.26l6.34,7.66v.4Zm-15.35-18.68v6.73h5.88c2.38,0,3.4-1.78,3.4-3.24-.03-1.58-1.06-3.5-3.47-3.5h-5.81Z"/><path class="cls-2" d="m449.21,71.08h-7.03v-4.59h19.18v4.59h-7.03v18.52h-5.12v-18.52Z"/><path class="cls-2" d="m481.06,81.51l-.33-7.26v-7.76h5.18v23.1h-4.42l-11.49-14.79.2,7.59v7.2h-5.21v-23.1h4.42l11.65,15.02Z"/><path class="cls-2" d="m509.14,89.6h-17.59v-23.1h17.13v4.72h-12.08v4.46h11.39v4.52h-11.39v4.65h12.54v4.75Z"/><path class="cls-2" d="m534.18,89.6h-5.71l-5.91-7.59h-3.73v7.59h-5.15v-23.1h10.96c5.58,0,8.55,3.73,8.55,7.79-.03,3-.92,5.68-5.35,7.26l6.34,7.66v.4Zm-15.35-18.68v6.73h5.88c2.38,0,3.4-1.78,3.4-3.24-.03-1.58-1.06-3.5-3.46-3.5h-5.81Z"/><path class="cls-2" d="m563.75,82.67c0,1.02.79,2.34,2.31,2.01v5.08c-2.38.33-4.65-.33-5.35-3-1.35,2.34-3.96,3.24-6.54,3.2-4.22,0-8.68-1.52-8.78-6.93-.03-2.38,1.42-4.26,3.76-5.31-2.05-.66-3.1-3.07-3.1-4.55,0-5.48,5.18-7.1,8.98-7.1,4.39,0,8.38,1.72,8.75,6.77h-4.72c-.26-1.78-2.34-2.61-4.16-2.57-1.98.03-3.73,1.06-3.73,2.9,0,2.18,2.08,2.61,3.66,2.61h10.76v3.93h-1.85v2.97Zm-13.27-.33c0,2.57,2.64,3.07,4.36,3.07,1.22,0,4.36-.76,4.36-3.3v-2.41h-4.62c-2.77,0-4.09,1.35-4.09,2.64Z"/><path class="cls-2" d="m594.9,85.64h-11.85l-1.68,3.96h-5.54l10.36-23.1h5.61l10.36,23.1h-5.58l-1.68-3.96Zm-5.91-13.93l-3.99,9.37h7.95l-3.96-9.37Z"/><path class="cls-2" d="m602.1,76.36h12.38v4.19h-12.38v-4.19Z"/><path class="cls-2" d="m638.73,66.63l-9.37,11.09,10.2,11.58v.3h-6.21l-8.55-9.87v9.87h-5.15v-23.1h5.15v9.54l7.69-9.54h6.24v.13Z"/><path class="cls-2" d="m658.73,85.64h-11.85l-1.68,3.96h-5.54l10.36-23.1h5.61l10.36,23.1h-5.58l-1.68-3.96Zm-5.91-13.93l-3.99,9.37h7.95l-3.96-9.37Z"/><path class="cls-2" d="m682.32,72.07c-1.29-1.35-3.53-1.95-5.35-1.95-2.28,0-4.13.96-4.13,2.54,0,2.11,2.01,2.51,4.98,2.77,4.55.4,8.88,2.15,8.88,7.49s-4.75,7.39-9.74,7.43c-3.99.03-8.15-1.52-10.1-4.75l3.07-3.2c1.78,2.28,4.72,3.27,7.06,3.27,2.74,0,4.62-1.09,4.62-2.74.03-1.95-1.52-2.84-4.65-3.1-4.88-.46-9.24-1.68-9.18-7.13.03-4.59,4.39-7.03,9.14-7.03,3.56,0,6.24.79,8.61,3.56l-3.23,2.84Z"/><path class="cls-2" d="m704.4,72.07c-1.29-1.35-3.53-1.95-5.35-1.95-2.28,0-4.13.96-4.13,2.54,0,2.11,2.01,2.51,4.98,2.77,4.55.4,8.88,2.15,8.88,7.49s-4.75,7.39-9.74,7.43c-3.99.03-8.15-1.52-10.1-4.75l3.07-3.2c1.78,2.28,4.72,3.27,7.06,3.27,2.74,0,4.62-1.09,4.62-2.74.03-1.95-1.52-2.84-4.65-3.1-4.88-.46-9.24-1.68-9.18-7.13.03-4.59,4.39-7.03,9.14-7.03,3.56,0,6.24.79,8.61,3.56l-3.23,2.84Z"/><path class="cls-2" d="m730.4,89.6h-17.59v-23.1h17.13v4.72h-12.08v4.46h11.39v4.52h-11.39v4.65h12.54v4.75Z"/><path class="cls-2" d="m208.6,52.57h-11.46c-24.8,0-41.1,18.64-55.98,37.54-14.75,18.73-25.96,36.42-48.07,36.42-.02,0-.06,0-.09,0-7.67,0-13.98-2.99-19.41-8.42-10-10-10-30.64,0-40.64,5.43-5.43,11.74-8.42,19.41-8.42s14.89,2.99,20.32,8.42c3.36,3.36,8.8,3.36,12.16,0,3.36-3.36,3.36-8.8,0-12.16-8.67-8.68-20.21-13.45-32.48-13.45s-23.8,4.78-32.48,13.45c-17.91,17.91-17.91,47.05,0,64.95,8.68,8.68,20.21,13.45,32.47,13.45h.12c30.44-.01,44.79-22.84,60.64-42.98,13.47-17.11,26.01-30.99,42.47-30.99h3.77v36.31h-26.69c-4.51,0-8.17,3.66-8.17,8.17s3.66,8.17,8.17,8.17h26.69v12.52c0,4.75,3.85,8.6,8.6,8.6s8.6-3.85,8.6-8.6V61.17c0-4.75-3.85-8.6-8.6-8.6"/><rect class="cls-1" width="782.36" height="195.59"/></g></svg>